<?xml version="1.0" encoding="UTF-8"?><svg id="a" xmlns="http://www.w3.org/2000/svg" xmlns:xlink="http://www.w3.org/1999/xlink" viewBox="0 0 1508.94 396.35"><defs><style>.f{fill:#1437c1;}.f,.g,.h,.i,.j,.k,.l{stroke-width:0px;}.g{fill:none;}.h{fill:#001649;}.i{fill:#3760f3;}.j{fill:#000;}.k{fill:#101681;}.l{fill:#0572ed;}.m{clip-path:url(#e);}.n{clip-path:url(#d);}.o{clip-path:url(#c);}.p{isolation:isolate;}</style><clipPath id="c"><rect class="g" width="610" height="120.95"/></clipPath><clipPath id="d"><rect class="g" width="610" height="120.95"/></clipPath><clipPath id="e"><rect class="g" x="37.39" width="61.57" height="67.95"/></clipPath></defs><path class="h" d="M289.7,216.24c0-14.28,18.28-17.56,29.46-17.56v-31.35h-6.99c-32.5,0-54.06,18.53-54.06,47.69v177.08h31.59v-139.42h42.82v139.42h31.59v-168.27h-74.41v-7.6Z"/><path class="h" d="M161.82,219.27c-19.44,0-36.75,6.38-49.21,22.48h-.61v-17.92h-29.47v168.27h31.59v-92.03c0-31.59,16.71-51.94,44.35-51.94s41.91,16.7,41.91,52.24v91.73h31.59v-100.84c0-46.47-29.77-71.99-70.16-71.99"/><rect class="h" x="22.16" y="223.83" width="31.59" height="168.27"/><polygon class="h" points="641.96 167.34 641.96 223.83 573.62 223.83 573.62 392.1 605.21 392.1 605.21 252.68 641.96 252.68 641.96 392.1 673.55 392.1 673.55 252.68 706.17 252.68 706.17 223.83 673.55 223.83 673.55 167.34 641.96 167.34"/><path class="h" d="M736.43,297.34c2.43-28.86,28.25-49.21,54.06-49.21s52.25,20.65,54.67,49.21h-108.74ZM876.75,305.84c0-48.3-37.66-86.57-87.17-86.57-44.65,0-84.74,37.06-84.74,90.21,0,44.96,38.27,86.87,85.65,86.87,36.15,0,67.74-22.48,80.8-57.1h-31.59c-9.72,17.92-28.24,28.25-47.99,28.25-25.82,0-47.99-17.92-55.28-45.87h139.41c.91-5.77.91-10.63.91-15.79"/><path class="h" d="M474.67,219.27c-19.44,0-36.75,6.38-49.21,22.48h-.61v-17.92h-29.47v168.27h31.59v-92.03c0-31.59,16.71-51.94,44.35-51.94s41.91,16.7,41.91,52.24v91.73h31.59v-100.84c0-46.47-29.77-71.99-70.16-71.99"/><path class="h" d="M588.78,205.73c11.29,0,20.44-9.15,20.44-20.43s-9.15-20.45-20.44-20.45-20.44,9.15-20.44,20.45,9.15,20.43,20.44,20.43"/><path class="h" d="M354.95,205.73c11.29,0,20.44-9.15,20.44-20.43s-9.15-20.45-20.44-20.45-20.44,9.15-20.44,20.45,9.15,20.43,20.44,20.43"/><path class="h" d="M36.38,205.73c11.29,0,20.44-9.15,20.44-20.43s-9.15-20.45-20.44-20.45-20.44,9.15-20.44,20.45,9.15,20.43,20.44,20.43"/><path class="l" d="M944.41,392.1v-24.3h.61c13.97,18.83,36.45,28.56,60.75,28.56,47.38,0,84.44-41.31,84.44-88.39s-39.48-88.69-87.17-88.69c-22.78,0-44.04,9.42-57.71,27.95h-.61v-79.88h-31.59v224.77h31.29ZM1001.21,367.49c-32.2,0-57.41-26.73-57.41-60.14s25.82-59.23,57.1-59.23,57.71,27.94,57.71,59.83-26.42,59.53-57.4,59.53M1142.09,167.33h-31.59v224.77h31.59v-224.77ZM1317.53,392.1v-168.27h-31.59v90.82c0,32.5-14.88,52.85-44.04,52.85s-41.91-17.01-41.91-52.24v-91.43h-31.59v93.85c0,59.23,34.02,78.67,70.16,78.67,22.17,0,41.31-8.2,49.51-22.48h.61v18.22h28.86ZM1368.61,297.33c2.43-28.85,28.25-49.2,54.07-49.2s52.24,20.65,54.67,49.2h-108.74ZM1508.03,321.63c.91-5.77.91-10.63.91-15.8,0-48.29-37.67-86.57-87.17-86.57-44.65,0-84.74,37.06-84.74,90.21,0,44.96,38.27,86.87,85.65,86.87,36.14,0,67.73-22.48,80.8-57.1h-31.59c-9.72,17.92-28.25,28.24-47.99,28.24-25.81,0-47.99-17.92-55.28-45.86h139.42Z"/><g id="b"><g class="o"><g class="n"><path class="j" d="M120.04,50.49c-2.35-3.08-5.35-5.59-8.91-7.47-3.57-1.87-7.65-2.83-12.13-2.83s-8.13.82-11.51,2.43c-3.38,1.61-6.3,3.83-8.69,6.58-2.39,2.75-4.24,5.98-5.53,9.6-1.28,3.61-1.93,7.48-1.93,11.5,0,4.36.61,8.43,1.81,12.08,1.21,3.66,3.03,6.87,5.43,9.5,2.39,2.65,5.36,4.73,8.81,6.2,3.45,1.47,7.46,2.21,11.93,2.21,3.07,0,6.05-.43,8.88-1.26,2.83-.85,5.42-2.11,7.7-3.77,2.28-1.66,4.26-3.72,5.89-6.15,1.62-2.43,2.78-5.23,3.44-8.31l.15-.73h-12.86l-.14.41c-1.04,2.96-2.61,5.21-4.7,6.68-2.09,1.47-4.89,2.22-8.36,2.22-2.5,0-4.67-.43-6.45-1.29-1.79-.86-3.28-2.03-4.44-3.46-1.17-1.44-2.07-3.16-2.65-5.09-.54-1.77-.84-3.6-.88-5.5h39.25c1.03,0,1.89-.79,1.97-1.79.32-3.79,0-7.54-.96-11.13-1.06-3.98-2.79-7.56-5.13-10.64M84.93,64.73c.12-1.78.51-3.46,1.17-5,.73-1.73,1.71-3.24,2.91-4.52,1.21-1.26,2.66-2.28,4.35-2.99,1.68-.72,3.58-1.08,5.66-1.08s3.81.39,5.42,1.18c1.61.79,3.01,1.84,4.14,3.1,1.13,1.28,2.04,2.79,2.7,4.52.58,1.54.97,3.15,1.15,4.81h-27.49Z"/><path class="j" d="M180.25,41.7v.02h-11.25l-.13.42-12.45,38.88c-.13.39-.47.54-.74.54-.13,0-.57-.04-.74-.54l-12.94-38.89-.13-.42h-11.88c-.64,0-1.25.31-1.62.85-.37.54-.47,1.2-.24,1.81l19.34,53.12c.29.77,1.04,1.3,1.86,1.3h11.9c.84,0,1.59-.52,1.86-1.31l19.03-53.12c.22-.61.12-1.29-.25-1.81-.37-.52-.98-.85-1.62-.85"/><path class="j" d="M231.62,50.49c-2.35-3.08-5.35-5.59-8.91-7.47-3.57-1.87-7.65-2.83-12.13-2.83s-8.13.82-11.51,2.43c-3.38,1.61-6.3,3.83-8.69,6.58-2.39,2.75-4.24,5.98-5.53,9.6-1.28,3.61-1.93,7.48-1.93,11.5,0,4.36.61,8.43,1.81,12.08,1.21,3.66,3.03,6.87,5.43,9.5,2.39,2.65,5.36,4.73,8.81,6.2,3.45,1.47,7.46,2.21,11.93,2.21,3.07,0,6.05-.43,8.88-1.26,2.83-.85,5.42-2.11,7.7-3.77,2.28-1.66,4.26-3.72,5.89-6.15,1.62-2.43,2.78-5.23,3.44-8.31l.16-.73h-12.86l-.14.41c-1.04,2.96-2.61,5.21-4.7,6.68-2.09,1.47-4.89,2.22-8.36,2.22-2.5,0-4.67-.43-6.45-1.29-1.79-.86-3.28-2.03-4.44-3.46-1.17-1.44-2.07-3.16-2.65-5.09-.54-1.77-.84-3.6-.88-5.5h39.25c1.03,0,1.89-.79,1.97-1.79.32-3.79,0-7.54-.95-11.13-1.06-3.98-2.79-7.56-5.13-10.64M196.51,64.73c.12-1.78.51-3.46,1.17-5,.73-1.73,1.71-3.24,2.91-4.52,1.21-1.26,2.66-2.28,4.35-2.99,1.68-.72,3.58-1.08,5.66-1.08s3.81.39,5.42,1.18,3.01,1.84,4.14,3.1c1.13,1.28,2.04,2.79,2.7,4.52.59,1.54.97,3.15,1.15,4.81h-27.49Z"/><path class="j" d="M333.5,49.13c-2.21-2.75-5.03-4.96-8.38-6.55s-7.32-2.38-11.78-2.38c-1.62,0-3.29.2-4.95.61-1.66.41-3.27,1-4.79,1.78-1.52.78-2.92,1.73-4.18,2.84-.87.76-1.66,1.61-2.35,2.52v-26.46c0-1.1-.9-1.98-1.98-1.98v-.02s-11.54,0-11.54,0v79.32h10.9c1.1,0,1.98-.89,1.98-1.98v-4.4c.79,1.22,1.72,2.27,2.75,3.11,1.44,1.19,3.08,2.16,4.86,2.9,1.77.74,3.65,1.24,5.61,1.5,1.93.25,3.88.38,5.75.38,4.19,0,7.89-.85,11-2.5,3.09-1.66,5.69-3.9,7.72-6.65,2.02-2.75,3.55-5.96,4.54-9.54.98-3.57,1.48-7.3,1.48-11.08,0-4.15-.55-8.1-1.65-11.73-1.1-3.66-2.77-6.9-4.98-9.66M326.63,70.3c0,2.46-.26,4.77-.8,7.05-.53,2.25-1.4,4.29-2.61,6.07-1.21,1.75-2.77,3.21-4.62,4.31-1.84,1.1-4.14,1.65-6.83,1.65l-.02-.02c-2.42,0-4.56-.49-6.38-1.44-1.83-.97-3.43-2.29-4.73-3.95-1.31-1.66-2.32-3.69-2.97-6-.67-2.35-1-4.93-1-7.67,0-5.82,1.29-10.54,3.83-14.01,2.5-3.42,6.29-5.15,11.26-5.15,2.4,0,4.56.54,6.41,1.6,1.86,1.07,3.44,2.5,4.68,4.26,1.25,1.78,2.21,3.84,2.83,6.13.63,2.31.95,4.73.95,7.19"/><rect class="j" x="385.84" y="41.72" width="13.54" height="57.08"/><path class="j" d="M450.66,21.48v26.46c-.8-1.04-1.72-1.98-2.76-2.8-1.44-1.14-3.03-2.1-4.73-2.84-1.7-.74-3.49-1.28-5.32-1.61-1.83-.33-3.65-.5-5.41-.5-3.09,0-6.16.57-9.14,1.72-3,1.14-5.69,2.96-8.01,5.39-2.32,2.43-4.2,5.56-5.59,9.28-1.38,3.72-2.09,8.19-2.09,13.29,0,4.22.55,8.22,1.65,11.9,1.1,3.7,2.77,6.95,4.98,9.66,2.21,2.73,5.04,4.91,8.38,6.49,3.34,1.57,7.31,2.38,11.78,2.38,3.61,0,7.07-.73,10.3-2.16,2.75-1.22,4.97-3.11,6.61-5.65v4.32c0,1.1.9,1.98,1.98,1.98h10.9V19.5h-11.56c-1.1,0-1.98.89-1.98,1.98M451.12,70.19c0,2.39-.3,4.75-.9,7.04-.6,2.27-1.52,4.33-2.73,6.14-1.21,1.79-2.78,3.26-4.67,4.35-1.89,1.1-4.17,1.65-6.78,1.65h-.02c-2.55,0-4.79-.52-6.64-1.55-1.86-1.04-3.41-2.42-4.61-4.14-1.22-1.74-2.14-3.74-2.72-5.97-.6-2.24-.9-4.56-.9-6.87,0-2.47.26-4.91.8-7.27.53-2.33,1.41-4.45,2.61-6.28,1.21-1.82,2.78-3.33,4.68-4.46,1.87-1.12,4.24-1.69,7-1.69,4.61,0,8.15,1.62,10.84,4.96,2.67,3.34,4.04,8.07,4.04,14.11"/><path class="j" d="M514.53,48.08c-1.56-2.46-3.63-4.34-6.16-5.61-3.03-1.51-6.4-2.28-10-2.28h-.01c-4.04,0-7.71.79-10.92,2.33-3.2,1.54-5.93,3.65-8.15,6.26-2.21,2.61-3.92,5.68-5.09,9.11-1.17,3.43-1.77,7.1-1.77,10.89,0,4.07.48,7.94,1.43,11.51.95,3.59,2.5,6.81,4.6,9.55,2.1,2.77,4.8,4.97,8,6.55,3.2,1.59,7.14,2.38,11.68,2.38,3.55,0,6.91-.89,9.98-2.67,2.58-1.49,4.73-3.49,6.4-5.99v6.76c0,4.42-1.11,7.86-3.29,10.18-2.19,2.31-5.71,3.48-10.49,3.48-1.55,0-3.06-.08-4.47-.26-1.36-.17-2.63-.55-3.75-1.12-1.11-.57-2.08-1.37-2.89-2.38-.8-1-1.38-2.34-1.72-3.96l-.1-.48h-13.48l.06.66c.3,3.34,1.28,6.2,2.92,8.51,1.62,2.29,3.68,4.16,6.09,5.57,2.39,1.4,5.07,2.4,7.97,2.99,2.88.58,5.78.87,8.61.87,8.98,0,15.98-2.15,20.8-6.37,4.83-4.25,7.29-10.74,7.29-19.31v-55.07h-13.54v7.88ZM500.08,87.85c-2.47,0-4.6-.51-6.35-1.54-1.75-1.03-3.22-2.38-4.36-4.03-1.15-1.67-2.01-3.58-2.57-5.7-.56-2.13-.85-4.35-.85-6.61s.25-4.56.74-6.84c.49-2.27,1.3-4.31,2.41-6.07,1.1-1.75,2.57-3.2,4.35-4.29,1.77-1.09,3.99-1.63,6.61-1.63s4.78.49,6.59,1.44c1.81.97,3.31,2.28,4.44,3.91,1.14,1.66,2.01,3.6,2.57,5.76.56,2.18.85,4.45.85,6.76s-.27,4.66-.8,6.94c-.53,2.27-1.37,4.31-2.52,6.08-1.13,1.74-2.62,3.17-4.45,4.23-1.8,1.06-4.06,1.59-6.67,1.59"/><path class="j" d="M590.39,61.13c-1.06-3.98-2.79-7.56-5.13-10.64-2.35-3.08-5.35-5.59-8.91-7.47-3.57-1.87-7.65-2.83-12.13-2.83-4.25,0-8.13.82-11.51,2.43-3.38,1.61-6.3,3.83-8.69,6.58-2.39,2.75-4.24,5.97-5.53,9.6-1.28,3.61-1.93,7.48-1.93,11.5,0,4.36.61,8.43,1.82,12.08,1.2,3.66,3.03,6.87,5.43,9.5,2.39,2.65,5.36,4.73,8.81,6.2,3.45,1.47,7.46,2.21,11.93,2.21,3.07,0,6.05-.43,8.88-1.26,2.83-.85,5.42-2.11,7.7-3.77s4.26-3.72,5.88-6.15c1.62-2.43,2.78-5.24,3.44-8.31l.15-.73h-12.86l-.14.41c-1.04,2.96-2.62,5.21-4.71,6.68-2.09,1.47-4.89,2.22-8.35,2.22-2.5,0-4.67-.43-6.45-1.29-1.79-.86-3.28-2.03-4.44-3.46-1.17-1.44-2.07-3.16-2.65-5.09-.54-1.76-.84-3.6-.88-5.5h39.25c1.03,0,1.89-.79,1.97-1.79.32-3.79,0-7.54-.95-11.13M558.57,52.22c1.68-.72,3.58-1.08,5.66-1.08s3.81.39,5.42,1.18c1.61.79,3.01,1.84,4.14,3.1,1.14,1.28,2.05,2.79,2.7,4.52.59,1.54.97,3.15,1.15,4.81h-27.5c.12-1.79.52-3.47,1.17-5.01.72-1.73,1.7-3.24,2.91-4.52,1.21-1.26,2.66-2.28,4.35-2.99"/><path class="j" d="M393.11,20.14h-.68c-3.9,0-7.07,3.17-7.07,7.06s3.18,7.06,7.07,7.06h.68c3.9,0,7.07-3.17,7.07-7.06s-3.18-7.06-7.07-7.06"/><path class="j" d="M276.1,41.21h-.05c-18.06.45-31.67,11.14-31.67,24.85v30.75c0,1.1.9,1.98,1.98,1.98h10.8v-30.71c0-8.19,8.93-14.61,20.32-14.61h.6v-10.3c0-1.09-.9-1.97-1.98-1.97"/><path class="j" d="M377.88,41.21h-.05c-18.06.45-31.67,11.14-31.67,24.85v30.75c0,1.1.9,1.98,1.98,1.98h10.8v-30.71c0-8.19,8.93-14.61,20.32-14.61h.6v-10.3c0-1.09-.9-1.97-1.98-1.97"/><g class="p"><g class="m"><path class="i" d="M39.83,34.42s-1.05,1.91-2.44,5.12c6.03,7.89,9.62,17.74,9.62,28.41h2.08s-.18-8.24,3.49-18.23c6.84-18.64,25.33-31.58,46.38-31.58V0C73.65,0,51.55,13.88,39.83,34.42"/></g></g><path class="f" d="M35.96,37.74C27.33,27.51,14.41,20.99,0,20.99v18.14c15.91,0,28.85,12.93,28.85,28.82h2.08c0-11.43,3.83-22.29,6.46-28.41-.46-.61-.94-1.21-1.43-1.79"/><path class="k" d="M30.93,67.95h16.08c0-10.67-3.6-20.52-9.62-28.41-2.63,6.12-6.46,16.98-6.46,28.41"/><polygon class="j" points="591.46 41.78 591.46 40.2 598.92 40.2 598.92 41.78 596.14 41.78 596.14 49.28 594.24 49.28 594.24 41.78 591.46 41.78"/><polygon class="j" points="600.15 40.2 602.52 40.2 605.02 46.3 605.13 46.3 607.63 40.2 610 40.2 610 49.28 608.14 49.28 608.14 43.37 608.06 43.37 605.71 49.24 604.44 49.24 602.09 43.35 602.02 43.35 602.02 49.28 600.15 49.28 600.15 40.2"/></g></g></g></svg>